<svg width="1024" height="1366" viewBox="0 0 1024 1366" fill="none" xmlns="http://www.w3.org/2000/svg">
<rect width="1024" height="1366" fill="#112F55"/>
<path d="M77.0608 751L136.341 618H166.741L226.211 751H193.911L145.271 633.58H157.431L108.601 751H77.0608ZM106.701 722.5L114.871 699.13H183.271L191.631 722.5H106.701ZM298.34 752.52C289.726 752.52 282.19 750.62 275.73 746.82C269.27 743.02 264.203 737.257 260.53 729.53C256.983 721.677 255.21 711.797 255.21 699.89C255.21 687.857 256.92 677.977 260.34 670.25C263.76 662.523 268.7 656.76 275.16 652.96C281.62 649.16 289.346 647.26 298.34 647.26C307.966 647.26 316.58 649.477 324.18 653.91C331.906 658.217 337.986 664.297 342.42 672.15C346.98 680.003 349.26 689.25 349.26 699.89C349.26 710.657 346.98 719.967 342.42 727.82C337.986 735.673 331.906 741.753 324.18 746.06C316.58 750.367 307.966 752.52 298.34 752.52ZM237.92 787.86V648.78H266.23V669.68L265.66 700.08L267.56 730.29V787.86H237.92ZM293.21 728.2C298.15 728.2 302.52 727.06 306.32 724.78C310.246 722.5 313.35 719.27 315.63 715.09C318.036 710.783 319.24 705.717 319.24 699.89C319.24 693.937 318.036 688.87 315.63 684.69C313.35 680.51 310.246 677.28 306.32 675C302.52 672.72 298.15 671.58 293.21 671.58C288.27 671.58 283.836 672.72 279.91 675C275.983 677.28 272.88 680.51 270.6 684.69C268.32 688.87 267.18 693.937 267.18 699.89C267.18 705.717 268.32 710.783 270.6 715.09C272.88 719.27 275.983 722.5 279.91 724.78C283.836 727.06 288.27 728.2 293.21 728.2ZM429.521 752.52C420.908 752.52 413.371 750.62 406.911 746.82C400.451 743.02 395.385 737.257 391.711 729.53C388.165 721.677 386.391 711.797 386.391 699.89C386.391 687.857 388.101 677.977 391.521 670.25C394.941 662.523 399.881 656.76 406.341 652.96C412.801 649.16 420.528 647.26 429.521 647.26C439.148 647.26 447.761 649.477 455.361 653.91C463.088 658.217 469.168 664.297 473.601 672.15C478.161 680.003 480.441 689.25 480.441 699.89C480.441 710.657 478.161 719.967 473.601 727.82C469.168 735.673 463.088 741.753 455.361 746.06C447.761 750.367 439.148 752.52 429.521 752.52ZM369.101 787.86V648.78H397.411V669.68L396.841 700.08L398.741 730.29V787.86H369.101ZM424.391 728.2C429.331 728.2 433.701 727.06 437.501 724.78C441.428 722.5 444.531 719.27 446.811 715.09C449.218 710.783 450.421 705.717 450.421 699.89C450.421 693.937 449.218 688.87 446.811 684.69C444.531 680.51 441.428 677.28 437.501 675C433.701 672.72 429.331 671.58 424.391 671.58C419.451 671.58 415.018 672.72 411.091 675C407.165 677.28 404.061 680.51 401.781 684.69C399.501 688.87 398.361 693.937 398.361 699.89C398.361 705.717 399.501 710.783 401.781 715.09C404.061 719.27 407.165 722.5 411.091 724.78C415.018 727.06 419.451 728.2 424.391 728.2ZM548.923 752.52C538.03 752.52 528.34 750.24 519.853 745.68C511.493 741.12 504.843 734.913 499.903 727.06C495.09 719.08 492.683 710.023 492.683 699.89C492.683 689.63 495.09 680.573 499.903 672.72C504.843 664.74 511.493 658.533 519.853 654.1C528.34 649.54 538.03 647.26 548.923 647.26C559.69 647.26 569.316 649.54 577.803 654.1C586.29 658.533 592.94 664.677 597.753 672.53C602.566 680.383 604.973 689.503 604.973 699.89C604.973 710.023 602.566 719.08 597.753 727.06C592.94 734.913 586.29 741.12 577.803 745.68C569.316 750.24 559.69 752.52 548.923 752.52ZM548.923 728.2C553.863 728.2 558.296 727.06 562.223 724.78C566.15 722.5 569.253 719.27 571.533 715.09C573.813 710.783 574.953 705.717 574.953 699.89C574.953 693.937 573.813 688.87 571.533 684.69C569.253 680.51 566.15 677.28 562.223 675C558.296 672.72 553.863 671.58 548.923 671.58C543.983 671.58 539.55 672.72 535.623 675C531.696 677.28 528.53 680.51 526.123 684.69C523.843 688.87 522.703 693.937 522.703 699.89C522.703 705.717 523.843 710.783 526.123 715.09C528.53 719.27 531.696 722.5 535.623 724.78C539.55 727.06 543.983 728.2 548.923 728.2ZM624.785 751V648.78H654.425V751H624.785ZM639.605 634.53C634.158 634.53 629.725 632.947 626.305 629.78C622.885 626.613 621.175 622.687 621.175 618C621.175 613.313 622.885 609.387 626.305 606.22C629.725 603.053 634.158 601.47 639.605 601.47C645.051 601.47 649.485 602.99 652.905 606.03C656.325 608.943 658.035 612.743 658.035 617.43C658.035 622.37 656.325 626.487 652.905 629.78C649.611 632.947 645.178 634.53 639.605 634.53ZM744.063 647.26C752.17 647.26 759.39 648.907 765.723 652.2C772.183 655.367 777.25 660.307 780.923 667.02C784.597 673.607 786.433 682.093 786.433 692.48V751H756.793V697.04C756.793 688.807 754.957 682.727 751.283 678.8C747.737 674.873 742.67 672.91 736.083 672.91C731.397 672.91 727.153 673.923 723.353 675.95C719.68 677.85 716.767 680.827 714.613 684.88C712.587 688.933 711.573 694.127 711.573 700.46V751H681.933V648.78H710.243V677.09L704.923 668.54C708.597 661.7 713.853 656.443 720.693 652.77C727.533 649.097 735.323 647.26 744.063 647.26ZM855.1 752.52C843.067 752.52 833.694 749.48 826.98 743.4C820.267 737.193 816.91 728.01 816.91 715.85V626.17H846.55V715.47C846.55 719.777 847.69 723.133 849.97 725.54C852.25 727.82 855.354 728.96 859.28 728.96C863.967 728.96 867.957 727.693 871.25 725.16L879.23 746.06C876.19 748.213 872.517 749.86 868.21 751C864.03 752.013 859.66 752.52 855.1 752.52ZM801.14 673.86V651.06H872.01V673.86H801.14Z" fill="white"/>
<circle cx="934.084" cy="604.569" r="22.0078" fill="#DC673B"/>
</svg>
