<svg width="1024" height="1366" viewBox="0 0 1024 1366" fill="none" xmlns="http://www.w3.org/2000/svg">
<rect width="1024" height="1366" fill="#242424"/>
<g clip-path="url(#clip0_39_12158)">
<path d="M512.469 981.044C678.989 981.044 813.981 847.605 813.981 683C813.981 518.395 678.989 384.956 512.469 384.956C345.948 384.956 210.956 518.395 210.956 683C210.956 847.605 345.948 981.044 512.469 981.044Z" fill="#5E92F7"/>
<path d="M245.7 558.388C245.7 558.388 261.784 570.365 261.784 580.764C261.784 580.764 288.352 585.386 284.89 608.486L299.442 558.382C299.442 558.382 289.734 545.212 299.442 543.927C299.442 543.927 311.458 509.138 325.326 525.313C325.326 525.313 333.41 539.174 331.102 549.573L347.278 527.621C347.278 527.621 359.985 529.929 358.831 550.727C358.831 550.727 394.389 555.682 363.903 564.758C363.903 564.758 398.686 552.462 385.979 577.876C385.979 577.876 395.028 582.811 388.769 594.208C388.769 594.208 436.403 596.359 390.973 608.492H376.792L379.048 585.967C379.048 585.967 332.725 597.141 328.162 618.702C328.162 618.702 356.301 587.903 344.572 618.702C344.572 618.702 389.447 621.78 342.088 636.795C342.088 636.795 331.571 640.094 328.168 658.662C328.168 658.662 312.645 661.055 312.351 683.58C312.351 683.58 314.587 710.729 299.462 722.855C299.462 722.855 320.142 754.626 305.127 756.934C305.127 756.934 300.505 741.919 290.112 741.919C290.112 741.919 250.837 725.744 273.937 790.439L283.175 797.37C283.175 797.37 291.221 756.934 298.171 797.37L308.589 808.923C308.589 808.923 316.674 790.439 318.988 821.63C318.988 821.63 339.78 837.805 358.263 808.923L366.491 826.141L369.816 806.608C369.816 806.608 470.318 801.986 471.472 835.491C471.472 835.491 460.845 858.597 486.376 835.491C486.376 835.491 552.337 834.337 544.252 857.443C544.252 857.443 530.391 933.685 506.131 956.791C506.131 956.791 503.83 984.819 535.594 981.201C535.594 981.201 515.689 982.628 495.315 980.686C495.315 980.686 446.058 914.047 424.113 910.585C424.113 910.585 345.556 878.241 357.109 847.05L353.641 828.567C353.641 828.567 299.344 841.274 284.329 807.775C284.329 807.775 261.504 820.313 231.91 773.612C231.91 773.612 188.626 680.999 245.719 558.401L245.7 558.388Z" fill="#5FAB2D"/>
<path d="M238.769 557.807C238.769 557.807 254.853 569.784 254.853 580.183C254.853 580.183 281.421 584.806 277.959 607.905L292.511 557.801C292.511 557.801 282.804 544.631 292.511 543.347C292.511 543.347 304.527 508.557 318.395 524.733C318.395 524.733 326.479 538.594 324.171 548.993L340.347 527.041C340.347 527.041 353.054 529.349 351.9 550.147C351.9 550.147 387.459 555.102 356.972 564.177C356.972 564.177 391.755 551.881 379.048 577.295C379.048 577.295 388.098 582.23 381.839 593.627C381.839 593.627 429.472 595.779 384.042 607.912H369.862L372.118 585.386C372.118 585.386 325.795 596.561 321.231 618.122C321.231 618.122 349.37 587.322 337.641 618.122C337.641 618.122 382.517 621.199 335.157 636.214C335.157 636.214 324.641 639.513 321.237 658.081C321.237 658.081 305.714 660.474 305.421 683C305.421 683 307.657 710.148 292.531 722.275C292.531 722.275 313.212 754.046 298.197 756.354C298.197 756.354 293.574 741.339 283.182 741.339C283.182 741.339 243.907 725.163 267.006 789.859L276.245 796.789C276.245 796.789 284.29 756.354 291.24 796.789L301.659 808.342C301.659 808.342 309.743 789.859 312.058 821.049C312.058 821.049 332.849 837.225 351.333 808.342L359.561 825.561L362.886 806.028C362.886 806.028 463.388 801.405 464.542 834.91C464.542 834.91 453.914 858.016 479.446 834.91C479.446 834.91 545.406 833.756 537.322 856.862C537.322 856.862 523.461 933.104 499.201 956.21C499.201 956.21 496.899 984.239 528.663 980.62C528.663 980.62 508.759 982.048 488.384 980.105C488.384 980.105 439.128 913.467 417.182 910.005C417.182 910.005 338.626 877.66 350.179 846.47L346.71 827.986C346.71 827.986 292.414 840.693 277.399 807.195C277.399 807.195 254.573 819.732 224.98 773.031C224.98 773.031 181.695 680.418 238.789 557.821L238.769 557.807Z" fill="#91F308"/>
<path d="M668.93 433.267C668.93 433.267 652.246 450.799 662.638 473.905C662.638 473.905 644.155 475.059 653.4 490.08C653.4 490.08 671.883 525.893 681.122 502.787L703.589 526.226C703.589 526.226 715.781 518.963 708.85 500.479C708.85 500.479 684.59 476.219 696.143 468.135C696.143 468.135 710.004 463.512 719.249 503.948C719.249 503.948 750.44 493.549 725.026 515.501L728.083 526.806C728.083 526.806 733.56 547.206 692.903 533.665C692.903 533.665 672.483 562.795 650.811 569.758C650.811 569.758 681.122 581.344 668.415 592.897C668.415 592.897 656.862 610.226 631.448 600.981C631.448 600.981 614.118 639.102 660.33 644.879L674.191 636.794L691.521 600.981L713.473 594.051C713.473 594.051 729.948 604.156 734.994 618.741L742.355 629.864C742.355 629.864 738.887 616.948 742.355 613.584C745.824 610.22 722.718 585.966 722.718 585.966C722.718 585.966 758.531 598.673 761.993 628.71L777.008 612.534V590.38C777.008 590.38 800.198 595.113 796.691 585.921C793.183 576.721 761.862 486.207 668.93 433.274V433.267Z" fill="#5FAB2D"/>
<path d="M667.775 427.491C667.775 427.491 651.091 445.022 661.484 468.128C661.484 468.128 643 469.282 652.245 484.304C652.245 484.304 670.729 520.117 679.967 497.011L702.434 520.449C702.434 520.449 714.626 513.186 707.696 494.703C707.696 494.703 683.436 470.443 694.989 462.358C694.989 462.358 708.85 457.736 718.095 498.171C718.095 498.171 749.285 487.772 723.871 509.724L726.929 521.03C726.929 521.03 732.406 541.43 691.749 527.888C691.749 527.888 671.329 557.019 649.657 563.982C649.657 563.982 679.967 575.567 667.26 587.12C667.26 587.12 655.707 604.45 630.293 595.205C630.293 595.205 612.964 633.326 659.176 639.102L673.037 631.018L690.366 595.205L712.318 588.274C712.318 588.274 728.794 598.38 733.84 612.965L741.201 624.087C741.201 624.087 737.732 611.172 741.201 607.808C744.669 604.443 721.563 580.19 721.563 580.19C721.563 580.19 757.376 592.897 760.838 622.933L775.853 606.758V584.604C775.853 584.604 799.044 589.337 795.537 580.144C792.029 570.945 760.708 480.431 667.775 427.497V427.491Z" fill="#91F308"/>
<path d="M800.753 613.187C800.753 613.187 787.98 596.509 779.029 613.187C779.029 613.187 763.72 625.496 779.029 633.457C779.029 633.457 812.475 644.716 792.433 659.236C792.433 659.236 744.774 638.94 754.534 659.236L718.441 646.033V632.505C718.441 632.505 686.663 624.081 669.458 646.033L640.693 652.964L632.608 677.224C632.608 677.224 594.487 701.484 604.886 729.206C604.886 729.206 601.418 759.242 608.355 761.55C608.355 761.55 625.684 810.07 696.15 778.88C696.15 778.88 700.772 781.188 713.479 780.034C713.479 780.034 699.149 797.95 708.048 807.475L716.948 821.623C716.948 821.623 707.194 909.347 694.741 918.044C682.289 926.741 847.61 821.773 800.766 613.18L800.753 613.187Z" fill="#5FAB2D"/>
<path d="M807.338 610.879C807.338 610.879 794.565 594.201 785.614 610.879C785.614 610.879 770.305 623.188 785.614 631.148C785.614 631.148 819.06 642.408 799.018 656.928C799.018 656.928 751.359 636.632 761.119 656.928L725.026 643.725V630.197C725.026 630.197 693.248 621.773 676.043 643.725L647.278 650.656L639.193 674.916C639.193 674.916 601.072 699.176 611.471 726.898C611.471 726.898 608.003 756.934 614.94 759.242C614.94 759.242 632.269 807.762 702.735 776.572C702.735 776.572 707.357 778.88 720.064 777.726C720.064 777.726 705.734 795.642 714.633 805.167L723.533 819.315C723.533 819.315 713.779 907.038 701.326 915.736C688.874 924.433 854.195 819.465 807.351 610.872L807.338 610.879Z" fill="#91F308"/>
<path d="M511.513 981.088C678.033 981.088 813.025 847.649 813.025 683.044C813.025 518.439 678.033 385 511.513 385C344.992 385 210 518.439 210 683.044C210 847.649 344.992 981.088 511.513 981.088Z" stroke="black" stroke-width="6" stroke-miterlimit="10"/>
<path d="M522.861 643.725C522.861 613.102 497.003 588.274 465.102 588.274C433.201 588.274 407.344 613.102 407.344 643.725C407.344 659.346 414.085 673.448 424.914 683.528C447.505 685.614 467.502 690.074 483.26 696.365C506.261 689.057 522.867 668.259 522.867 643.725H522.861Z" fill="white"/>
<path d="M507.846 644.879C507.846 614.256 533.703 589.429 565.604 589.429C597.506 589.429 623.363 614.256 623.363 644.879C623.363 660.501 616.621 674.603 605.792 684.682C583.201 686.769 563.205 691.228 547.447 697.52C524.445 690.211 507.839 669.413 507.839 644.879H507.846Z" fill="white"/>
<path d="M559.828 683C575.138 683 587.55 670.589 587.55 655.278C587.55 639.968 575.138 627.556 559.828 627.556C544.518 627.556 532.106 639.968 532.106 655.278C532.106 670.589 544.518 683 559.828 683Z" fill="#000100"/>
<path d="M472.033 679.531C487.343 679.531 499.755 667.12 499.755 651.809C499.755 636.499 487.343 624.087 472.033 624.087C456.723 624.087 444.311 636.499 444.311 651.809C444.311 667.12 456.723 679.531 472.033 679.531Z" fill="#000100"/>
<path d="M465.102 590.882C485.203 590.882 503.725 601.379 513.44 618.272L515.637 622.093L517.925 618.324C522.698 610.474 529.537 603.896 537.7 599.293C546.123 594.547 555.772 592.03 565.604 592.03C596.012 592.03 620.755 615.736 620.755 644.873C620.755 658.981 615.044 672.184 604.658 682.166C582.895 684.239 563.133 688.581 547.369 694.742C534.538 690.439 523.871 681.794 517.273 670.319L515.076 666.499L512.788 670.267C506.144 681.181 495.713 689.435 483.338 693.588C467.573 687.427 447.812 683.085 426.049 681.012C415.663 671.036 409.952 657.827 409.952 643.719C409.952 614.582 434.694 590.876 465.102 590.876M465.102 588.268C433.201 588.268 407.344 613.095 407.344 643.719C407.344 659.34 414.085 673.442 424.914 683.522C447.505 685.608 467.502 690.068 483.26 696.359C496.723 692.082 507.983 683.183 515.017 671.623C521.994 683.743 533.553 693.099 547.46 697.52C563.218 691.228 583.214 686.769 605.805 684.682C616.634 674.603 623.376 660.5 623.376 644.879C623.376 614.256 597.518 589.429 565.617 589.429C544.317 589.429 525.729 600.506 515.709 616.975C505.87 599.867 486.904 588.275 465.109 588.275L465.102 588.268Z" fill="black"/>
<path d="M547.669 663.356C549.883 663.356 551.678 661.561 551.678 659.347C551.678 657.132 549.883 655.337 547.669 655.337C545.454 655.337 543.659 657.132 543.659 659.347C543.659 661.561 545.454 663.356 547.669 663.356Z" fill="white"/>
<path d="M550.59 654.059C552.804 654.059 554.599 652.264 554.599 650.049C554.599 647.835 552.804 646.04 550.59 646.04C548.375 646.04 546.58 647.835 546.58 650.049C546.58 652.264 548.375 654.059 550.59 654.059Z" fill="white"/>
<path d="M461.028 649.495C463.242 649.495 465.037 647.7 465.037 645.485C465.037 643.271 463.242 641.476 461.028 641.476C458.813 641.476 457.018 643.271 457.018 645.485C457.018 647.7 458.813 649.495 461.028 649.495Z" fill="white"/>
<path d="M463.094 644.82C464.841 644.82 466.256 643.405 466.256 641.658C466.256 639.912 464.841 638.496 463.094 638.496C461.348 638.496 459.932 639.912 459.932 641.658C459.932 643.405 461.348 644.82 463.094 644.82Z" fill="white"/>
<path d="M515.768 796.209C468.741 796.209 424.048 786.984 389.93 770.234C379.824 765.299 373.52 755.239 373.52 744.005C373.52 732.772 379.824 722.712 389.982 717.75C398.269 713.656 408.296 713.656 416.687 717.803C442.655 730.549 477.862 737.583 515.774 737.583C553.686 737.583 588.887 730.549 614.913 717.776C623.252 713.662 633.273 713.662 641.671 717.803C651.724 722.712 658.029 732.772 658.029 744.005C658.029 755.239 651.724 765.299 641.566 770.26C607.494 786.984 562.808 796.209 515.774 796.209H515.768ZM391.182 769.622C391.221 769.641 391.26 769.661 391.305 769.68C391.266 769.661 391.227 769.641 391.182 769.622ZM640.412 769.595C640.373 769.615 640.334 769.635 640.288 769.654C640.327 769.635 640.373 769.615 640.412 769.595ZM616.152 718.383C616.152 718.383 616.1 718.409 616.074 718.422C616.1 718.409 616.126 718.396 616.152 718.383ZM415.331 718.357C415.331 718.357 415.383 718.383 415.409 718.396C415.383 718.383 415.357 718.37 415.331 718.357Z" fill="#E589E3"/>
<path d="M515.768 796.209C468.741 796.209 424.048 786.984 389.93 770.234C379.824 765.299 373.52 755.239 373.52 744.005C373.52 732.772 379.824 722.712 389.982 717.75C398.269 713.656 408.296 713.656 416.687 717.803C442.655 730.549 477.862 737.583 515.774 737.583C553.686 737.583 588.887 730.549 614.913 717.776C623.252 713.662 633.273 713.662 641.671 717.803C651.724 722.712 658.029 732.772 658.029 744.005C658.029 755.239 651.724 765.299 641.566 770.26C607.494 786.984 562.808 796.209 515.774 796.209H515.768ZM391.182 769.622C391.221 769.641 391.26 769.661 391.305 769.68C391.266 769.661 391.227 769.641 391.182 769.622ZM640.412 769.595C640.373 769.615 640.334 769.635 640.288 769.654C640.327 769.635 640.373 769.615 640.412 769.595ZM616.152 718.383C616.152 718.383 616.1 718.409 616.074 718.422C616.1 718.409 616.126 718.396 616.152 718.383ZM415.331 718.357C415.331 718.357 415.383 718.383 415.409 718.396C415.383 718.383 415.357 718.37 415.331 718.357Z" stroke="black" stroke-width="4" stroke-miterlimit="10"/>
<path d="M695.011 696.316C716.479 691.455 731.54 677.174 728.652 664.419C725.763 651.664 706.019 645.265 684.551 650.126C663.083 654.988 648.021 669.269 650.91 682.024C653.798 694.779 673.543 701.178 695.011 696.316Z" fill="#FF92F7" stroke="black" stroke-width="4" stroke-miterlimit="10"/>
<path d="M389.066 685.933C393.255 673.544 379.746 657.786 358.894 650.736C338.042 643.686 317.743 648.014 313.554 660.403C309.366 672.792 322.874 688.551 343.726 695.6C364.578 702.65 384.877 698.322 389.066 685.933Z" fill="#FF92F7" stroke="black" stroke-width="4" stroke-miterlimit="10"/>
</g>
<defs>
<clipPath id="clip0_39_12158">
<rect width="606.93" height="600" fill="white" transform="translate(209 383)"/>
</clipPath>
</defs>

</svg>
