<svg width="1024" height="1536" viewBox="0 0 1024 1536" fill="none" xmlns="http://www.w3.org/2000/svg">
<rect width="1024" height="1536" fill="#3C5199"/>
<path d="M266.146 818.02C266.146 818.02 248.541 784.205 218.626 805.946C205.905 815.193 197.978 829.614 196.425 845.271C194.334 866.325 198.787 897.851 236.826 917.659L299.636 868.603L266.146 818.02V818.02Z" fill="#F7E5D8"/>
<path d="M756.564 817.634C756.564 817.634 774.85 784.181 804.318 806.529C816.847 816.031 824.482 830.612 825.716 846.295C827.381 867.387 822.29 898.816 783.857 917.848L722.052 867.525L756.559 817.634H756.564Z" fill="#F7E5D8"/>
<path d="M784.408 798.836V814.806C788.052 814.806 792.005 817.223 794.681 819.257C803.401 825.868 808.912 836.18 809.812 847.551C810.652 858.177 809.136 867.823 805.305 876.218C801.315 884.975 794.654 892.465 785.461 898.566L743.586 864.469L769.692 826.726L770.112 826.177L770.543 825.352C772.182 822.531 778.066 814.812 784.408 814.806V798.836M784.408 798.836C766.851 798.836 756.572 817.633 756.572 817.633L722.066 867.525L783.87 917.847C822.303 898.816 827.395 867.386 825.729 846.295C824.495 830.612 816.861 816.031 804.332 806.528C796.953 800.933 790.276 798.836 784.413 798.836H784.408Z" fill="#55413A"/>
<path d="M238.199 814.627C244.604 814.627 250.409 822.548 252.015 825.444L252.297 826.019L252.84 826.839L278.175 865.104L235.618 898.343C226.547 892.056 220.046 884.439 216.232 875.602C212.577 867.132 211.257 857.459 212.311 846.85C213.439 835.5 219.158 825.3 228.011 818.869C230.671 816.932 234.602 814.627 238.199 814.627M238.199 798.656C232.453 798.656 225.904 800.658 218.626 805.949C205.905 815.196 197.978 829.618 196.425 845.274C194.334 866.328 198.787 897.854 236.826 917.662L299.636 868.607L266.146 818.023C266.146 818.023 256.064 798.662 238.199 798.662V798.656Z" fill="#55413A"/>
<path d="M253.436 860.945C253.436 860.945 143.308 473.93 534.341 496.821C534.341 496.821 867.667 486.706 767.77 860.945C767.77 860.945 889.198 1078.67 590.203 1051.53C590.203 1051.53 495.031 1102.1 425.309 1051.53C425.309 1051.53 141.712 1082.93 253.436 860.945V860.945Z" fill="#F7E5D8"/>
<path opacity="0.34" d="M336.829 991.944L319.395 1005.91C296.779 1024.03 263.73 1013.36 245.583 982.068C227.436 950.783 231.059 910.729 253.675 892.608L271.109 878.639C293.725 860.518 326.774 871.191 344.921 902.483C363.069 933.769 359.446 973.822 336.829 991.944V991.944Z" fill="#FFBCE9"/>
<path opacity="0.34" d="M682.375 991.944L699.809 1005.91C722.425 1024.03 755.474 1013.36 773.621 982.068C791.769 950.783 788.145 910.729 765.529 892.608L748.095 878.639C725.479 860.518 692.43 871.191 674.283 902.483C656.136 933.769 659.759 973.822 682.375 991.944Z" fill="#FFBCE9"/>
<path d="M435.121 836.212C435.121 823.276 424.641 812.789 411.712 812.789C398.784 812.789 388.303 823.276 388.303 836.212C388.303 849.148 398.784 859.635 411.712 859.635C424.641 859.635 435.121 849.148 435.121 836.212Z" fill="#3C5199"/>
<path d="M631.436 836.212C631.436 823.276 620.955 812.789 608.027 812.789C595.099 812.789 584.618 823.276 584.618 836.212C584.618 849.148 595.099 859.635 608.027 859.635C620.955 859.635 631.436 849.148 631.436 836.212Z" fill="#3C5199"/>
<path d="M501.873 511.814C512.04 511.814 522.649 512.134 533.412 512.762L534.098 512.804L534.805 512.783C534.805 512.783 535.534 512.762 536.87 512.762C545.994 512.762 578.766 513.624 617.322 524.708C639.118 530.973 659.064 539.475 676.615 549.978C697.757 562.627 715.596 578.32 729.641 596.622C739.457 609.409 747.613 623.74 753.88 639.215C760.764 656.202 765.563 675.031 768.149 695.191C774.038 741.101 768.723 795.48 752.353 856.822L750.672 863.056L753.822 868.704C753.928 868.896 764.574 888.273 771.123 913.719C774.842 928.167 776.528 941.716 776.134 953.991C775.672 968.477 772.283 981.184 766.053 991.761C758.072 1005.31 744.99 1016.04 727.162 1023.63C704.929 1033.1 675.131 1037.89 638.608 1037.89C624.089 1037.89 608.288 1037.13 591.641 1035.62L586.933 1035.17L582.735 1037.4C582.341 1037.61 543.105 1058.03 499.043 1058.03C474.113 1058.03 452.454 1051.49 434.669 1038.59L429.673 1034.98L423.555 1035.65C423.422 1035.66 410.244 1037.08 391.198 1037.08C354.797 1037.08 329.069 1032.08 313.89 1027.88C284.475 1019.75 264.035 1006.65 253.139 988.945C245.536 976.595 242.328 961.386 243.6 943.728C245.148 922.242 253.251 896.807 267.684 868.129L270.483 862.566L268.78 856.572C268.663 856.168 257.182 815.262 255.347 761.761C254.277 730.555 256.687 701.425 262.518 675.186C269.669 642.99 282.017 615.105 299.217 592.31C308.182 580.434 318.636 569.723 330.298 560.487C342.864 550.526 357.191 541.982 372.891 535.088C408.041 519.645 451.438 511.814 501.873 511.814M501.873 495.844C149.576 495.844 253.437 860.943 253.437 860.943C166.351 1033.98 319.444 1053.05 391.203 1053.05C411.505 1053.05 425.305 1051.52 425.305 1051.52C448.549 1068.38 474.613 1074 499.043 1074C547.898 1074 590.199 1051.52 590.199 1051.52C607.756 1053.11 623.839 1053.86 638.608 1053.86C875.335 1053.86 767.771 860.943 767.771 860.943C862.545 505.889 567.381 496.791 536.864 496.791C535.215 496.791 534.337 496.818 534.337 496.818C523.096 496.158 512.296 495.844 501.868 495.844H501.873Z" fill="#55413A"/>
<path opacity="0.6" d="M536.734 937.337C536.734 922.343 524.586 910.188 509.601 910.188C494.616 910.188 482.468 922.343 482.468 937.337C482.468 952.331 494.616 964.487 509.601 964.487C524.586 964.487 536.734 952.331 536.734 937.337Z" fill="#FFBCE9"/>
<path d="M509.606 972.465C490.246 972.465 474.492 956.702 474.492 937.33C474.492 917.958 490.246 902.195 509.606 902.195C528.966 902.195 544.719 917.958 544.719 937.33C544.719 956.702 528.966 972.465 509.606 972.465ZM509.606 918.166C499.045 918.166 490.453 926.763 490.453 937.33C490.453 947.897 499.045 956.495 509.606 956.495C520.166 956.495 528.758 947.897 528.758 937.33C528.758 926.763 520.166 918.166 509.606 918.166Z" fill="#55413A"/>
<path d="M377.135 798.769C373.943 798.769 370.926 796.837 369.697 793.68C368.101 789.571 370.133 784.945 374.241 783.342C374.725 783.156 386.195 778.722 399.618 776.459C419.622 773.089 433.662 776.225 441.339 785.775C444.1 789.209 443.557 794.239 440.126 797.002C436.694 799.765 431.667 799.222 428.906 795.788C425.272 791.274 415.563 789.97 402.262 792.206C390.435 794.197 380.13 798.184 380.024 798.221C379.071 798.594 378.092 798.769 377.129 798.769H377.135Z" fill="#55413A"/>
<path d="M646.862 798.769C650.054 798.769 653.071 796.837 654.3 793.68C655.896 789.571 653.864 784.945 649.756 783.342C649.272 783.156 637.802 778.722 624.379 776.459C604.375 773.089 590.335 776.225 582.658 785.775C579.897 789.209 580.44 794.239 583.871 797.002C587.303 799.765 592.33 799.222 595.091 795.788C598.725 791.274 608.434 789.97 621.735 792.206C633.562 794.197 643.867 798.184 643.973 798.221C644.926 798.594 645.905 798.769 646.867 798.769H646.862Z" fill="#55413A"/>
<path opacity="0.34" d="M509.339 875.669C519.917 875.669 528.492 871.736 528.492 866.885C528.492 862.034 519.917 858.102 509.339 858.102C498.761 858.102 490.186 862.034 490.186 866.885C490.186 871.736 498.761 875.669 509.339 875.669Z" fill="#FFBCE9"/>
<path d="M622.719 487.5C592.878 474.463 527.934 454.671 462.305 490.721C457.628 493.287 452.68 495.326 447.557 496.806C433.299 500.921 408.672 504.929 404.533 485.259C399.138 459.627 340.824 543.535 434.219 565.436C442.37 567.347 448.121 574.246 453.627 579.846C465.215 591.627 485.894 617.435 518.975 627.273C633.019 661.189 694.142 595.849 657.986 519.622C656.646 516.79 654.917 514.054 652.916 511.339C645.181 500.836 634.668 492.717 622.719 487.495V487.5Z" fill="#55413A"/>
<path d="M576.971 644.25C558.377 644.25 538.267 641.061 516.89 634.705C486.028 625.527 465.332 603.482 452.968 590.312C451.218 588.449 449.563 586.687 448.127 585.228C447.43 584.52 446.728 583.791 446.015 583.051C441.604 578.462 437.433 574.129 432.581 572.99C410.944 567.916 394.952 559.175 385.04 547.006C376.693 536.758 372.878 524.259 374.011 510.86C375.655 491.376 387.854 472.978 399.601 472.254C404.432 471.956 410.694 474.697 412.524 483.39C413.37 487.41 415.317 488.985 416.711 489.827C421.994 493.005 432.496 492.669 445.531 488.911C450.09 487.596 454.506 485.775 458.65 483.497C488.688 467 521.673 459.941 556.701 462.517C585.989 464.673 610.605 473.191 626.098 479.962C639.568 485.85 651.124 494.985 659.524 506.383C661.988 509.726 663.908 512.867 665.382 515.981C673.9 533.931 677.57 551.579 676.294 568.438C675.043 584.957 668.872 600.129 658.444 612.314C645.293 627.678 625.821 637.994 602.136 642.147C594.097 643.557 585.702 644.26 576.971 644.26V644.25ZM398.122 490.886C394.18 495.762 388.972 506.223 389.887 518.19C391.339 537.094 407.358 550.663 436.226 557.435C445.669 559.649 452.239 566.484 457.517 571.973C458.182 572.665 458.842 573.352 459.501 574.022C461.066 575.614 462.784 577.44 464.598 579.378C476.59 592.149 494.705 611.446 521.434 619.4C576.301 635.716 622.985 629.184 646.32 601.923C663.557 581.784 665.249 552.952 650.959 522.827C649.927 520.649 648.522 518.371 646.671 515.858C639.93 506.713 630.604 499.361 619.703 494.596C605.349 488.325 582.568 480.431 555.525 478.445C523.626 476.097 493.614 482.512 466.322 497.498C461.145 500.34 455.639 502.614 449.946 504.253C437.545 507.831 420.281 510.609 408.481 503.513C403.655 500.612 400.123 496.295 398.112 490.891L398.122 490.886Z" fill="#55413A"/>
<path d="M567.861 911.506C580.932 971.485 628.95 998.56 683.102 987C724.15 978.238 746.851 955.917 757.892 918.611C765.977 895.356 768.823 865.392 771.029 838.918C772.304 825.505 774.188 808.467 773.047 801.302C771.864 793.306 765.398 788.676 757.288 789.987C748.05 791.26 743.494 797.965 740.231 811.243L730.379 855.285C729.38 859.692 727.829 861.561 725.823 861.989C723.282 862.531 721.224 861.433 720.263 857.025L689.494 715.828C687.631 707.279 679.327 701.922 670.77 703.749C662.346 705.547 657.012 713.815 658.875 722.365L681.232 824.956C677.493 824.496 673.516 824.226 669.331 824.281L643.51 705.794C641.647 697.244 633.343 691.887 624.786 693.714C616.228 695.541 610.894 703.809 612.757 712.358L638.258 829.376C634.467 830.605 630.573 831.996 626.841 833.491L603.436 726.091C601.573 717.542 593.269 712.185 584.846 713.983C576.288 715.81 570.954 724.078 572.817 732.627L598.201 849.111C594.464 851.866 591.215 854.936 588.204 857.816L570.534 776.731C568.671 768.182 560.501 762.796 551.944 764.623C543.387 766.45 538.052 774.718 539.915 783.267L567.861 911.506Z" fill="#F7E5D8"/>
<path fill-rule="evenodd" clip-rule="evenodd" d="M740.231 811.243C743.494 797.964 748.05 791.26 757.288 789.987C765.398 788.675 771.864 793.306 773.047 801.302C774.062 807.674 772.684 821.856 771.47 834.351C771.319 835.906 771.17 837.434 771.029 838.918C768.823 865.391 765.977 895.356 757.892 918.611C746.851 955.917 724.15 978.237 683.102 987C628.95 998.56 580.932 971.484 567.861 911.506L539.915 783.267C538.052 774.718 543.387 766.449 551.944 764.623C556.291 763.695 560.537 764.628 563.908 766.891C567.174 769.083 569.618 772.524 570.534 776.731L588.204 857.815C591.215 854.936 594.464 851.866 598.201 849.111L572.817 732.627C570.954 724.078 576.288 715.809 584.846 713.983C589.362 713.019 593.844 714.111 597.317 716.65C600.322 718.846 602.572 722.125 603.436 726.091L626.841 833.491C630.573 831.995 634.467 830.605 638.258 829.376L612.757 712.358C612.515 711.246 612.394 710.139 612.387 709.05C612.336 701.767 617.341 695.303 624.786 693.714C633.343 691.887 641.647 697.244 643.51 705.793L669.331 824.281C673.516 824.226 677.493 824.495 681.232 824.956L658.875 722.364C657.949 718.114 658.801 713.933 660.929 710.581C663.08 707.193 666.534 704.653 670.77 703.749C679.327 701.922 687.631 707.279 689.494 715.828L720.263 857.025C721.224 861.433 723.283 862.531 725.823 861.989C727.829 861.561 729.38 859.692 730.379 855.285L740.231 811.243ZM725.296 804.975C727.071 798.409 729.596 791.789 733.826 786.316C739.118 779.471 746.299 775.399 754.856 774.177C762.519 772.982 770.492 774.461 777.078 779.186C783.721 783.952 787.699 791.128 788.876 798.939C789.764 804.62 789.384 812.442 788.918 818.965C788.522 824.51 787.931 830.587 787.397 836.084C787.253 837.572 787.112 839.017 786.981 840.398C784.816 866.352 781.9 898.156 773.145 923.55C767.011 944.104 757.34 961.594 742.693 975.222C727.957 988.933 709.201 997.788 686.508 1002.63C655.971 1009.15 626.041 1004.97 601.584 989.6C577.037 974.178 559.538 948.458 552.214 914.846L524.268 786.607C520.523 769.424 531.338 752.661 548.537 748.99C552.419 748.161 556.261 748.072 559.927 748.622L557.169 735.967C553.425 718.784 564.24 702.021 581.439 698.35C587.117 697.138 592.752 697.528 597.886 699.214C601.235 688.842 609.88 680.536 621.379 678.081C635.262 675.117 648.907 681.622 655.623 693.278C659.028 690.842 662.985 689.05 667.363 688.116C684.562 684.444 701.397 695.305 705.141 712.488L725.296 804.975Z" fill="#55413A"/>
<ellipse cx="410.188" cy="832.418" rx="33.4282" ry="33.4488" fill="white"/>
<ellipse cx="415.76" cy="837.987" rx="26.6187" ry="26.6351" fill="#3C5199"/>
</svg>
