<svg width="1024" height="1366" viewBox="0 0 1024 1366" fill="none" xmlns="http://www.w3.org/2000/svg">
<rect width="1024" height="1366" fill="#D6F5FD"/>
<path d="M296.396 608.286C296.396 608.286 234.709 539.448 278.336 487.546C278.336 487.546 314.284 453.808 364.354 511.679C414.424 569.549 333.158 623.148 296.396 608.286V608.286Z" fill="#F9F4E8"/>
<path d="M328.348 580.922C340.437 578.473 347.577 563.376 344.296 547.202C341.014 531.028 328.554 519.901 316.465 522.35C304.376 524.799 297.236 539.896 300.518 556.07C303.799 572.244 316.259 583.371 328.348 580.922Z" fill="#E5C5AC"/>
<path d="M758.91 608.286C758.91 608.286 820.597 539.448 776.97 487.546C776.97 487.546 741.022 453.808 690.952 511.679C640.882 569.549 722.148 623.148 758.91 608.286V608.286Z" fill="#F9F4E8"/>
<path d="M310.4 616.113C304.662 616.113 299.245 615.206 294.446 613.266L293.326 612.812L292.52 611.912C291.87 611.185 276.401 593.78 266.209 569.554C252.361 536.637 255.179 507.178 274.35 484.376L274.773 483.93C275.306 483.429 288.003 471.727 308.889 472.814C328.726 473.847 348.712 485.83 368.275 508.445C388.691 532.045 390.899 558.853 374.318 581.999C359.64 602.494 332.593 616.105 310.392 616.105L310.4 616.113ZM299.472 604.066C318.635 610.802 350.489 597.449 365.879 575.968C379.634 556.772 377.692 535.198 360.423 515.243C342.864 494.951 325.43 484.164 308.592 483.202C293.256 482.318 283.627 490.008 282.077 491.337C265.598 511.152 263.453 536.035 275.697 565.306C283.917 584.964 296.246 600.249 299.472 604.074V604.066Z" fill="black"/>
<path d="M744.905 616.113C722.704 616.113 695.657 602.502 680.986 582.008C664.406 558.861 666.614 532.054 687.03 508.453C706.593 485.839 726.579 473.847 746.416 472.822C767.294 471.727 779.999 483.437 780.532 483.938L780.954 484.384C800.126 507.194 802.944 536.645 789.096 569.562C778.903 593.78 763.442 611.193 762.785 611.921L761.978 612.82L760.859 613.274C756.068 615.214 750.651 616.121 744.905 616.121V616.113ZM749.148 483.124C748.357 483.124 747.543 483.148 746.713 483.195C729.882 484.165 712.441 494.944 694.882 515.235C677.612 535.198 675.679 556.765 689.425 575.961C704.816 597.449 736.669 610.794 755.825 604.059C759.051 600.234 771.38 584.949 779.6 565.291C791.843 536.02 789.698 511.137 773.212 491.322C771.811 490.11 763.098 483.117 749.132 483.117L749.148 483.124Z" fill="black"/>
<path d="M757.333 557.285C762.016 541.459 756.222 525.796 744.394 522.302C732.565 518.807 719.18 528.804 714.498 544.63C709.815 560.456 715.608 576.118 727.437 579.613C739.266 583.107 752.651 573.111 757.333 557.285Z" fill="#E5C5AC"/>
<path d="M374.554 962.615C374.554 962.615 117.73 958.462 288.215 730.094C288.215 730.094 236.853 607.602 330.833 600.343C330.833 600.343 313.892 464.882 441.76 527.164C441.76 527.164 521.539 423.361 608.966 527.164C608.966 527.164 724.809 462.809 736.826 598.786C736.826 598.786 820.973 652.965 736.826 744.213C736.826 744.213 909.386 943.419 660.273 962.623L574.286 973.864C531.465 979.457 488.073 979.144 445.338 972.925L374.546 962.623L374.554 962.615Z" fill="#F9F4E8"/>
<path d="M339.093 882.525C373.757 880.765 400.819 858.914 399.537 833.721C398.256 808.528 369.116 789.532 334.452 791.293C299.788 793.054 272.726 814.904 274.008 840.097C275.289 865.29 304.429 884.286 339.093 882.525Z" fill="#F9D3B7"/>
<path d="M690.796 882.525C725.46 880.765 752.522 858.914 751.241 833.721C749.959 808.528 720.819 789.532 686.155 791.293C651.491 793.054 624.429 814.904 625.711 840.097C626.993 865.29 656.132 884.286 690.796 882.525Z" fill="#F9D3B7"/>
<path d="M425.176 796.87C441.813 796.87 455.3 783.394 455.3 766.77C455.3 750.145 441.813 736.669 425.176 736.669C408.539 736.669 395.053 750.145 395.053 766.77C395.053 783.394 408.539 796.87 425.176 796.87Z" fill="black"/>
<path d="M606.601 796.87C623.238 796.87 636.725 783.394 636.725 766.77C636.725 750.145 623.238 736.669 606.601 736.669C589.964 736.669 576.478 750.145 576.478 766.77C576.478 783.394 589.964 796.87 606.601 796.87Z" fill="black"/>
<path d="M515.19 900.403C571.988 900.403 618.031 862.628 618.031 816.03C618.031 769.433 571.988 731.658 515.19 731.658C458.393 731.658 412.349 769.433 412.349 816.03C412.349 862.628 458.393 900.403 515.19 900.403Z" fill="white"/>
<path d="M564.14 737.921C546.26 736.86 530.509 748.423 525.58 764.869C521.245 762.582 516.784 761.643 512.248 762.102C508.327 762.496 504.926 763.901 502.136 765.585C498.423 749.668 484.599 737.359 467.454 736.341C446.581 735.102 428.592 751.062 427.354 771.919C426.116 792.776 442.089 810.752 462.962 811.992C483.835 813.231 500.782 798.173 502.908 778.207C504.551 776.432 508.415 772.9 513.344 772.433C516.79 772.112 520.361 773.382 523.99 776.192C524.209 795.881 539.681 812.386 559.648 813.572C579.614 814.757 598.509 798.851 599.747 777.994C600.986 757.137 585.012 739.161 564.14 737.921ZM463.578 801.622C448.425 800.722 436.825 787.676 437.724 772.527C438.624 757.378 451.679 745.795 466.839 746.696C481.999 747.596 493.592 760.642 492.692 775.791C491.793 790.94 478.738 802.522 463.578 801.622ZM560.263 803.202C545.111 802.302 533.511 789.256 534.41 774.107C535.31 758.958 548.365 747.375 563.525 748.276C578.685 749.176 590.278 762.222 589.378 777.371C588.479 792.519 575.424 804.102 560.263 803.202Z" fill="black"/>
<path d="M483.571 865.343C483.571 865.343 487.979 885.791 517.178 884.618C517.178 884.618 547.153 880.597 549.337 861.917L518.415 861.346L483.571 865.351V865.343Z" fill="#F9D3B7"/>
<path d="M513.319 864.443L535.872 871.061C534.557 874.354 531.942 876.811 527.864 878.696C522.188 881.324 516.067 881.614 515.636 881.629H515.378L515.01 881.66C514.07 881.746 513.139 881.786 512.238 881.786C505.099 881.786 499.392 879.204 494.789 873.901C494.39 873.439 494.014 872.978 493.662 872.516L513.319 864.435M512.802 854.501L480.526 867.768C480.526 867.768 487.744 891.173 512.246 891.173C513.405 891.173 514.603 891.118 515.847 891.008C515.847 891.008 546.902 890.398 546.292 864.334L512.802 854.501V854.501Z" fill="black"/>
<path d="M513.429 888.294C512.567 887.387 512.442 886.026 513.084 884.954C514.07 883.319 514.438 881.301 514.18 878.947C514.07 877.961 513.875 877.054 513.656 876.303C513.295 875.02 513.89 873.659 515.096 873.072C516.63 872.329 518.462 873.158 518.924 874.793C519.198 875.763 519.456 876.913 519.605 878.164C520.036 881.856 519.394 885.15 517.726 887.864C516.795 889.382 514.658 889.585 513.429 888.294Z" fill="black"/>
<path d="M561.127 852.969C559.146 851.381 556.273 851.428 554.41 853.164C550.903 856.434 547.028 858.218 542.66 858.593C534.886 859.266 527.261 855.315 522.752 852.359C521.28 851.396 520.38 849.762 520.38 848.001V820.326C520.38 818.949 520.928 817.627 521.899 816.657L534.033 804.532C536.06 802.506 536.06 799.221 534.033 797.195C532.005 795.169 528.717 795.169 526.69 797.195L517.139 806.738C515.48 808.397 512.92 808.733 510.884 807.567L496.433 799.276C493.944 797.852 490.773 798.705 489.341 801.192C487.916 803.68 488.769 806.848 491.259 808.279L507.393 817.533C509.005 818.456 510 820.177 510 822.031V849.644C510 850.95 509.514 852.21 508.622 853.164C506.391 855.55 502.367 858.922 496.48 860.361C489.208 862.144 480.91 860.619 471.75 855.832C469.324 854.564 466.333 855.37 464.901 857.701C463.327 860.259 464.243 863.623 466.905 865.015C475.124 869.318 482.968 871.477 490.358 871.477C493.294 871.477 496.159 871.132 498.946 870.452C505.209 868.919 509.976 865.891 513.35 862.981C515.018 861.542 517.421 861.339 519.323 862.465C524.701 865.649 532.436 869.059 540.898 869.059C541.751 869.059 542.62 869.028 543.481 868.95C550.206 868.379 556.226 865.641 561.455 860.791C563.757 858.656 563.577 854.94 561.119 852.977L561.127 852.969Z" fill="black"/>
<path d="M512.599 983C489.662 983 466.74 981.342 443.983 978.033L373.513 967.778C370.139 967.699 344.806 966.847 315.685 959.001C297.562 954.12 281.772 947.533 268.738 939.414C252.158 929.08 240 916.228 232.618 901.217C211.959 859.226 228.485 801.402 281.733 729.327C276.566 715.919 256.573 658.401 278.359 622.777C287.675 607.539 303.222 598.457 324.625 595.72C323.576 580.239 323.176 535.213 351.249 515.149C371.344 500.787 401.107 502.68 439.748 520.757C443.474 516.455 450.935 508.492 461.37 500.419C481.52 484.829 503.267 476.341 524.255 475.872C554.292 475.199 582.999 490.281 609.631 520.695C622.469 514.429 664.922 496.516 699.007 514.577C722.891 527.234 737.068 554.597 741.163 595.915C748.748 601.446 773.846 622.112 778.183 656.023C781.8 684.316 769.987 714.018 743.088 744.354C749.296 751.996 764.17 771.286 777.189 795.762C787.013 814.223 793.691 831.777 797.057 847.946C801.347 868.589 800.227 887.058 793.73 902.852C778.332 940.258 733.42 962.099 660.218 967.762L574.364 978.979C553.87 981.655 533.234 983 512.614 983H512.599ZM383.627 515.931C373.192 515.931 364.385 518.473 357.269 523.558C349.174 529.338 338.857 541.893 335.631 568.857C333.643 585.488 335.357 599.553 335.373 599.693L336.046 605.075L330.637 605.49C310.033 607.086 295.417 614.712 287.197 628.159C265.669 663.368 292.121 727.441 292.395 728.091L293.538 730.813L291.769 733.183C239.672 802.967 222.895 857.959 241.91 896.633C248.416 909.86 259.25 921.281 274.116 930.566C286.25 938.146 301.077 944.334 318.174 948.957C347.593 956.912 373.787 957.436 374.045 957.444H374.374L445.494 967.801C487.767 973.95 530.674 974.262 573.026 968.724L659.153 957.468H659.286C728.34 952.133 770.347 932.444 784.156 898.925C809.379 837.667 733.099 748.484 732.332 747.584L729.311 744.095L732.442 740.7C759.293 711.585 771.231 683.573 767.943 657.439C763.606 623.059 733.741 603.323 733.444 603.127L731.33 601.758L731.103 599.24C727.659 560.307 715.251 534.9 694.216 523.738C659.419 505.261 611.384 531.419 610.907 531.685L607.181 533.75L604.433 530.496C579.163 500.497 552.281 485.595 524.513 486.221C478.913 487.238 445.619 529.886 445.291 530.316L442.715 533.664L438.918 531.81C417.203 521.234 398.728 515.931 383.658 515.931H383.627Z" fill="black"/>
<path d="M346.989 456.092L523.772 383.795C525.015 383.286 526.41 383.299 527.643 383.831L695.414 456.132C699.635 457.95 699.373 464.02 695.012 465.469L641.025 483.399V536.127C641.025 538.244 639.692 540.131 637.697 540.839L527.373 579.981C526.3 580.362 525.129 580.365 524.054 579.99L411.803 540.828C409.795 540.128 408.45 538.234 408.45 536.107V484.737L347.379 465.489C342.916 464.082 342.658 457.863 346.989 456.092Z" fill="#093656"/>
<path d="M408.45 484.737L347.379 465.489C342.916 464.082 342.658 457.863 346.989 456.092L523.772 383.795C525.015 383.286 526.41 383.299 527.643 383.831L695.414 456.132C699.635 457.95 699.373 464.02 695.012 465.469L641.025 483.399M408.45 484.737L524.172 521.211C525.175 521.527 526.252 521.519 527.251 521.188L641.025 483.399M408.45 484.737V536.107C408.45 538.234 409.795 540.128 411.803 540.828L524.054 579.99C525.129 580.365 526.3 580.362 527.373 579.981L637.697 540.839C639.692 540.131 641.025 538.244 641.025 536.127V483.399" stroke="black" stroke-width="9"/>
</svg>
